<svg id="svg" version="1.1" xmlns="http://www.w3.org/2000/svg" xmlns:xlink="http://www.w3.org/1999/xlink" width="400" height="400" viewBox="0, 0, 400,400"><g id="svgg"><path id="path0" d="M267.783 113.530 C 263.959 115.319,261.698 119.740,257.027 134.566 C 243.402 177.815,233.383 231.510,236.941 242.222 C 239.068 248.626,242.185 249.810,265.800 253.179 C 275.885 254.617,279.638 255.129,289.600 256.422 C 291.250 256.637,295.840 257.174,299.800 257.616 C 303.760 258.058,308.787 258.685,310.970 259.010 C 319.819 260.325,322.584 259.430,323.629 254.909 C 324.507 251.113,322.440 249.413,315.000 247.809 C 312.360 247.240,306.780 245.889,302.600 244.807 C 287.761 240.964,272.823 238.141,258.200 236.415 C 249.123 235.344,249.957 235.751,250.628 232.726 C 250.936 231.336,252.444 224.436,253.980 217.392 C 258.867 194.975,260.953 186.875,267.728 164.000 C 275.969 136.177,279.073 119.820,276.814 116.116 C 275.210 113.485,270.663 112.183,267.783 113.530 M160.200 113.440 C 117.443 116.618,95.053 139.425,95.053 179.800 C 95.053 219.872,119.382 247.440,156.494 249.423 C 194.263 251.440,233.883 219.147,230.382 189.200 C 229.725 183.583,228.379 181.940,224.962 182.581 C 223.410 182.872,223.481 182.751,220.981 189.400 C 213.664 208.865,199.268 223.170,180.993 229.136 C 167.048 233.688,147.459 232.718,135.800 226.898 C 109.069 213.554,104.747 163.763,128.416 141.849 C 137.813 133.150,152.706 128.400,170.587 128.400 C 192.559 128.400,204.332 134.037,215.165 149.744 C 220.186 157.024,222.764 158.716,225.910 156.798 C 228.327 155.325,228.483 152.738,226.557 146.090 C 220.004 123.477,194.434 110.895,160.200 113.440 " stroke="none" fill="#f9fafa" fill-rule="evenodd"></path><path id="path1" d="M0.000 200.000 L 0.000 400.000 200.000 400.000 L 400.000 400.000 400.000 200.000 L 400.000 0.000 200.000 0.000 L 0.000 0.000 0.000 200.000 M274.379 113.741 C 277.309 115.156,277.810 116.199,277.740 120.732 C 277.642 127.088,274.593 141.322,269.799 157.800 C 260.132 191.030,258.878 195.862,253.808 219.400 C 252.150 227.100,250.703 233.797,250.594 234.281 C 250.359 235.319,249.899 235.215,260.000 236.407 C 273.558 238.008,288.762 240.924,303.800 244.807 C 307.980 245.887,313.200 247.155,315.400 247.625 C 322.226 249.085,324.000 250.296,324.000 253.498 C 324.000 259.180,320.789 260.598,310.969 259.251 C 307.686 258.801,301.580 258.053,297.400 257.589 C 288.660 256.618,270.676 254.191,257.600 252.217 C 243.525 250.093,239.829 248.554,237.404 243.810 L 236.200 241.453 236.217 234.427 C 236.233 227.570,236.396 225.765,238.038 214.200 C 242.591 182.142,256.995 127.468,263.567 117.300 C 266.598 112.610,269.833 111.545,274.379 113.741 M182.859 113.826 C 202.746 116.600,218.039 126.129,224.405 139.715 C 228.072 147.540,229.032 154.315,226.771 156.427 C 223.364 159.610,220.474 157.962,214.794 149.600 C 211.260 144.396,204.001 137.192,199.798 134.717 C 185.584 126.347,155.472 126.634,138.200 135.305 C 114.554 147.175,106.164 181.321,119.784 210.252 C 126.070 223.602,138.793 230.709,158.400 231.819 C 185.865 233.375,210.772 216.540,220.565 189.800 C 223.388 182.091,223.911 181.514,227.258 182.416 C 232.372 183.793,232.027 199.203,226.643 209.911 C 214.167 234.721,182.873 251.993,154.758 249.586 C 118.059 246.445,94.800 219.291,94.800 179.590 C 94.800 142.096,116.042 118.041,152.887 113.812 C 159.581 113.043,177.308 113.052,182.859 113.826 " stroke="none" fill="#044aaa" fill-rule="evenodd"></path><path id="path2" d="M127.375 142.900 L 126.200 144.200 127.500 143.025 C 128.712 141.930,128.984 141.600,128.675 141.600 C 128.606 141.600,128.021 142.185,127.375 142.900 M112.934 181.200 C 112.934 182.850,113.005 183.525,113.091 182.700 C 113.178 181.875,113.178 180.525,113.091 179.700 C 113.005 178.875,112.934 179.550,112.934 181.200 " stroke="none" fill="#6087c0" fill-rule="evenodd"></path><path id="path3" d="M159.905 113.483 C 160.402 113.579,161.122 113.575,161.505 113.475 C 161.887 113.375,161.480 113.296,160.600 113.301 C 159.720 113.305,159.407 113.387,159.905 113.483 M216.400 129.000 C 217.146 129.770,217.847 130.400,217.957 130.400 C 218.067 130.400,217.546 129.770,216.800 129.000 C 216.054 128.230,215.353 127.600,215.243 127.600 C 215.133 127.600,215.654 128.230,216.400 129.000 M218.400 154.525 C 218.400 154.594,218.985 155.179,219.700 155.825 L 221.000 157.000 219.825 155.700 C 218.730 154.488,218.400 154.216,218.400 154.525 M94.893 174.800 C 94.893 175.570,94.975 175.885,95.076 175.500 C 95.176 175.115,95.176 174.485,95.076 174.100 C 94.975 173.715,94.893 174.030,94.893 174.800 M94.901 185.000 C 94.905 185.880,94.987 186.193,95.083 185.695 C 95.179 185.198,95.175 184.478,95.075 184.095 C 94.975 183.713,94.896 184.120,94.901 185.000 M236.093 233.200 C 236.093 233.970,236.175 234.285,236.276 233.900 C 236.376 233.515,236.376 232.885,236.276 232.500 C 236.175 232.115,236.093 232.430,236.093 233.200 " stroke="none" fill="#7cb4d0" fill-rule="evenodd"></path><path id="path4" d="M126.400 220.200 C 127.146 220.970,127.847 221.600,127.957 221.600 C 128.067 221.600,127.546 220.970,126.800 220.200 C 126.054 219.430,125.353 218.800,125.243 218.800 C 125.133 218.800,125.654 219.430,126.400 220.200 M214.575 226.100 L 213.400 227.400 214.700 226.225 C 215.415 225.579,216.000 224.994,216.000 224.925 C 216.000 224.616,215.670 224.888,214.575 226.100 " stroke="none" fill="#326ab1" fill-rule="evenodd"></path></g></svg>