<svg id="svg" version="1.1" xmlns="http://www.w3.org/2000/svg" xmlns:xlink="http://www.w3.org/1999/xlink" width="400" height="400" viewBox="0, 0, 400,400"><g id="svgg"><path id="path0" d="M0.000 200.000 L 0.000 400.000 200.000 400.000 L 400.000 400.000 400.000 200.000 L 400.000 0.000 200.000 0.000 L 0.000 0.000 0.000 200.000 M207.185 148.388 C 214.755 150.958,221.587 160.165,217.355 162.093 C 216.213 162.614,215.983 162.422,212.266 157.852 C 206.557 150.833,190.840 150.860,184.350 157.900 C 176.876 166.009,178.976 181.583,188.082 185.584 C 198.036 189.957,210.054 184.849,215.071 174.112 C 217.553 168.802,219.454 169.105,219.134 174.760 C 218.499 186.012,202.873 195.610,190.096 192.598 C 168.776 187.571,167.492 154.078,188.400 148.384 C 193.683 146.945,202.940 146.947,207.185 148.388 M234.210 147.758 C 235.573 148.754,234.818 153.809,231.786 164.000 C 229.284 172.411,226.000 185.835,226.000 187.654 C 226.000 188.193,226.292 188.400,227.055 188.400 C 230.535 188.400,248.688 192.277,249.894 193.278 C 250.713 193.958,250.487 195.525,249.473 196.189 C 248.221 197.009,226.737 194.377,223.331 192.985 C 219.760 191.526,220.093 183.365,224.430 166.061 C 228.580 149.506,230.834 145.289,234.210 147.758 M148.836 213.890 C 150.805 218.848,152.924 228.000,152.103 228.000 C 150.646 228.000,145.017 223.290,143.325 220.654 L 142.332 219.108 140.385 222.990 C 137.311 229.120,136.885 229.350,137.829 224.371 C 138.907 218.690,142.562 208.899,144.505 206.488 C 145.005 205.868,147.011 209.297,148.836 213.890 M194.588 209.428 C 193.488 215.237,188.662 227.966,187.550 227.994 C 186.044 228.031,179.640 210.146,180.071 207.107 C 180.314 205.398,183.501 211.456,185.978 218.334 L 187.467 222.468 188.987 218.134 C 190.921 212.622,194.471 205.538,195.023 206.090 C 195.115 206.181,194.919 207.683,194.588 209.428 M276.220 213.448 C 278.177 218.137,280.621 228.000,279.826 228.000 C 278.333 228.000,273.359 224.080,271.386 221.350 L 269.800 219.154 268.867 221.271 C 267.755 223.792,265.155 228.088,264.896 227.830 C 263.845 226.778,269.685 209.494,272.109 206.484 C 272.608 205.864,274.132 208.446,276.220 213.448 M96.647 207.165 C 98.680 208.089,99.602 209.347,99.594 211.189 C 99.583 213.621,99.067 213.852,97.649 212.062 C 93.039 206.241,86.006 207.670,86.001 214.429 C 85.997 221.023,90.970 225.985,97.091 225.494 C 99.749 225.280,99.753 225.281,98.777 226.017 C 91.489 231.518,80.714 222.982,83.378 213.818 C 85.013 208.192,91.617 204.881,96.647 207.165 M112.228 206.849 C 118.545 208.439,116.324 218.000,109.638 218.000 L 108.328 218.000 110.264 219.532 C 113.719 222.266,118.420 228.000,117.207 228.000 C 115.567 228.000,110.033 223.843,107.827 220.954 L 106.446 219.146 106.244 220.473 C 106.133 221.203,105.944 222.520,105.824 223.400 C 105.486 225.890,104.767 228.132,104.431 227.748 C 103.054 226.178,102.811 208.656,104.148 207.319 C 104.897 206.569,109.950 206.275,112.228 206.849 M133.500 207.270 C 137.266 208.211,133.783 209.400,127.259 209.400 L 122.718 209.400 122.959 211.156 C 123.092 212.122,123.200 213.581,123.200 214.400 L 123.200 215.889 126.900 215.717 C 132.577 215.454,136.357 216.887,132.798 217.953 C 131.162 218.443,124.704 218.635,124.022 218.213 C 123.455 217.863,123.323 218.349,123.026 221.875 L 122.749 225.149 124.275 224.726 C 126.761 224.037,135.200 225.043,135.200 226.029 C 135.200 227.048,126.150 228.003,123.006 227.315 C 121.480 226.982,121.388 226.872,120.883 224.783 C 119.562 219.332,120.419 207.383,122.158 207.001 C 125.018 206.372,130.420 206.501,133.500 207.270 M163.400 206.783 C 167.134 206.456,170.800 207.038,170.800 207.959 C 170.800 208.607,167.909 209.361,165.495 209.344 L 163.189 209.327 163.495 211.363 C 164.230 216.265,163.192 228.000,162.024 228.000 C 161.847 228.000,161.603 227.145,161.482 226.100 C 161.361 225.055,161.062 222.590,160.818 220.622 C 160.503 218.084,160.494 215.965,160.787 213.337 C 161.014 211.299,161.200 209.579,161.200 209.516 C 161.200 209.452,160.062 209.376,158.672 209.347 C 156.008 209.292,153.198 208.242,153.883 207.557 C 154.522 206.918,157.704 206.454,159.800 206.694 C 160.900 206.820,162.520 206.861,163.400 206.783 M210.800 207.263 C 214.379 208.372,211.524 209.400,204.864 209.400 L 200.328 209.400 200.559 210.800 C 200.687 211.570,200.793 213.030,200.796 214.044 L 200.800 215.889 204.500 215.717 C 208.256 215.543,211.582 216.147,211.887 217.060 C 212.142 217.826,210.744 218.109,205.754 218.304 L 200.907 218.493 200.640 221.699 C 200.323 225.497,200.190 225.270,202.398 224.709 C 204.374 224.208,210.961 224.830,212.523 225.666 C 213.892 226.398,210.991 227.224,206.200 227.466 C 200.019 227.778,199.124 227.465,198.516 224.783 C 197.057 218.347,197.822 207.426,199.763 207.000 C 202.654 206.365,208.339 206.500,210.800 207.263 M226.805 210.642 C 227.123 213.041,227.231 216.411,227.092 219.550 L 226.867 224.600 230.534 224.632 C 234.102 224.663,237.211 225.375,237.339 226.191 C 237.513 227.301,228.295 227.962,225.931 227.008 C 223.904 226.190,223.437 213.937,225.202 207.890 C 225.851 205.668,226.234 206.326,226.805 210.642 M242.862 209.300 C 243.840 214.604,243.226 227.600,241.997 227.600 C 240.672 227.600,239.986 215.775,240.988 210.210 C 241.811 205.640,242.157 205.472,242.862 209.300 M261.400 207.387 C 262.562 207.696,263.352 208.121,263.286 208.402 C 262.821 210.369,255.119 219.800,251.406 222.951 L 248.730 225.221 250.465 224.910 C 254.172 224.247,263.200 224.995,263.200 225.965 C 263.200 227.672,248.193 227.926,246.515 226.248 C 246.288 226.021,250.022 220.384,252.110 217.800 C 254.412 214.951,258.244 211.287,260.375 209.896 C 261.550 209.130,261.844 208.807,261.200 208.992 C 258.023 209.900,246.800 209.433,246.800 208.392 C 246.800 206.706,256.364 206.047,261.400 207.387 M291.989 206.780 C 298.622 208.060,296.485 217.989,289.574 218.003 L 288.200 218.005 289.367 218.774 C 292.382 220.762,297.801 227.132,297.086 227.848 C 296.404 228.529,290.303 223.998,287.988 221.090 L 286.445 219.152 286.243 220.476 C 286.133 221.204,285.944 222.520,285.824 223.400 C 285.484 225.903,284.767 228.131,284.424 227.748 C 283.055 226.220,282.831 208.635,284.164 207.303 C 284.810 206.656,289.666 206.332,291.989 206.780 M309.560 206.829 C 319.989 209.065,318.878 225.998,308.206 227.461 C 305.890 227.779,301.685 226.906,301.205 226.009 C 300.100 223.945,299.920 215.281,300.864 209.710 C 301.281 207.257,301.308 207.216,302.743 206.983 C 303.545 206.853,304.470 206.690,304.800 206.620 C 306.081 206.349,307.641 206.417,309.560 206.829 M176.055 209.500 C 177.048 214.419,176.441 227.033,175.174 227.816 C 174.057 228.507,173.177 215.326,174.022 210.573 C 174.864 205.843,175.273 205.627,176.055 209.500 M302.630 208.351 C 302.478 208.598,302.454 208.963,302.577 209.163 C 303.593 210.806,303.567 221.986,302.539 225.360 C 302.243 226.333,305.975 226.011,308.568 224.840 C 315.484 221.719,315.158 210.840,308.088 208.802 C 305.573 208.077,302.935 207.859,302.630 208.351 M105.744 209.100 C 105.853 209.485,106.066 211.128,106.217 212.751 L 106.491 215.702 108.616 215.483 C 115.444 214.778,116.084 211.170,109.728 209.207 C 106.435 208.190,105.479 208.164,105.744 209.100 M285.744 209.100 C 285.853 209.485,286.066 211.128,286.217 212.751 L 286.491 215.702 288.616 215.483 C 295.444 214.778,296.084 211.170,289.728 209.207 C 286.435 208.190,285.479 208.164,285.744 209.100 M271.438 214.286 C 270.112 218.267,270.109 218.235,271.982 219.191 C 273.649 220.041,276.169 222.318,277.307 224.000 C 277.679 224.550,277.355 223.644,276.588 221.987 C 275.821 220.330,274.582 217.218,273.835 215.072 L 272.476 211.169 271.438 214.286 M144.640 212.000 C 144.511 212.330,143.971 213.890,143.438 215.466 L 142.471 218.332 143.714 218.847 C 144.397 219.130,145.546 219.879,146.266 220.512 C 147.019 221.173,147.778 221.537,148.050 221.369 C 148.328 221.197,148.418 221.247,148.267 221.491 C 148.047 221.847,148.827 223.175,150.092 224.600 C 150.287 224.820,149.860 223.744,149.143 222.209 C 148.426 220.673,147.172 217.613,146.356 215.409 C 145.489 213.062,144.777 211.649,144.640 212.000 M107.530 240.100 C 108.395 241.035,109.569 242.340,110.139 243.000 L 111.175 244.200 111.187 241.924 C 111.194 240.672,111.020 239.536,110.800 239.400 C 110.012 238.913,110.422 238.400,111.600 238.400 C 112.778 238.400,113.188 238.913,112.400 239.400 C 112.180 239.536,112.000 241.167,112.000 243.024 C 112.000 247.147,112.061 247.141,108.527 243.312 C 105.877 240.441,105.665 240.293,105.793 241.400 C 105.869 242.060,105.984 243.500,106.048 244.600 C 106.159 246.517,106.052 246.690,104.900 246.460 C 104.735 246.427,104.600 244.600,104.600 242.400 C 104.600 237.667,104.992 237.359,107.530 240.100 M121.167 241.226 C 122.951 243.294,123.669 243.887,123.841 243.437 C 124.193 242.519,123.751 239.450,123.243 239.281 C 122.324 238.975,122.849 238.400,124.047 238.400 C 125.144 238.400,125.264 238.508,125.052 239.300 C 124.919 239.795,124.808 241.691,124.805 243.514 C 124.799 247.521,124.616 247.509,120.998 243.261 L 118.600 240.445 118.480 242.612 C 118.415 243.804,118.545 245.124,118.771 245.545 C 119.108 246.175,119.028 246.352,118.321 246.537 C 116.991 246.884,116.920 246.659,117.308 243.324 C 117.558 241.173,117.536 239.989,117.235 239.508 C 115.617 236.917,118.558 238.202,121.167 241.226 M136.000 238.916 C 137.479 239.661,138.308 242.291,137.602 243.996 C 136.141 247.523,130.812 247.642,129.366 244.180 C 127.764 240.347,132.066 236.933,136.000 238.916 M144.600 238.800 C 144.736 239.020,144.567 239.200,144.224 239.200 C 143.421 239.200,143.416 239.172,144.647 241.889 L 145.694 244.200 146.315 242.800 C 146.657 242.030,146.947 240.725,146.959 239.900 C 146.980 238.533,147.080 238.400,148.091 238.400 C 149.382 238.400,149.360 238.341,148.648 239.839 C 148.344 240.477,147.609 242.305,147.013 243.900 C 145.681 247.468,145.447 247.483,143.976 244.100 C 143.330 242.615,142.456 240.725,142.034 239.900 L 141.266 238.400 142.810 238.400 C 143.658 238.400,144.464 238.580,144.600 238.800 M157.227 239.250 C 157.477 239.718,158.115 241.373,158.644 242.928 C 159.173 244.484,159.829 245.898,160.103 246.072 C 160.383 246.250,159.729 246.385,158.600 246.382 C 157.120 246.377,156.772 246.275,157.263 245.989 C 157.941 245.593,157.843 244.048,157.109 243.560 C 156.516 243.167,154.800 243.653,154.800 244.214 C 154.800 244.500,154.697 245.004,154.571 245.332 C 154.429 245.701,154.620 246.002,155.071 246.119 C 155.472 246.222,155.007 246.328,154.038 246.354 C 152.392 246.397,152.316 246.354,152.887 245.700 C 153.222 245.315,153.995 243.515,154.604 241.700 C 155.740 238.317,156.398 237.702,157.227 239.250 M170.967 238.643 C 171.315 238.776,171.586 239.271,171.568 239.743 C 171.551 240.214,171.446 240.375,171.335 240.100 C 171.224 239.825,170.518 239.600,169.767 239.600 L 168.400 239.600 168.400 242.771 C 168.400 245.454,168.508 245.969,169.100 246.124 C 169.485 246.225,168.810 246.307,167.600 246.307 C 166.390 246.307,165.715 246.225,166.100 246.124 C 166.692 245.969,166.800 245.454,166.800 242.771 L 166.800 239.600 165.400 239.600 C 164.399 239.600,164.000 239.778,164.000 240.224 C 164.000 240.567,163.828 240.741,163.617 240.611 C 163.181 240.341,163.529 239.146,164.171 238.706 C 164.689 238.351,170.077 238.301,170.967 238.643 M177.400 242.604 C 177.400 245.941,177.290 246.767,176.867 246.604 C 176.574 246.492,176.114 246.400,175.843 246.400 C 175.470 246.400,175.430 245.675,175.677 243.374 C 175.880 241.477,175.851 240.070,175.600 239.601 C 175.018 238.512,175.083 238.400,176.300 238.400 L 177.400 238.400 177.400 242.604 M188.593 238.797 C 189.887 239.289,190.945 241.629,190.595 243.223 C 189.706 247.268,184.037 248.015,182.282 244.317 C 180.500 240.562,184.358 237.187,188.593 238.797 M197.930 240.100 C 198.795 241.035,199.969 242.340,200.539 243.000 L 201.575 244.200 201.587 241.924 C 201.594 240.672,201.420 239.536,201.200 239.400 C 200.412 238.913,200.822 238.400,202.000 238.400 C 203.145 238.400,203.594 238.910,202.852 239.368 C 202.660 239.486,202.485 241.053,202.461 242.849 C 202.406 247.123,202.409 247.123,198.932 243.400 L 195.942 240.200 196.129 242.950 C 196.245 244.652,196.523 245.832,196.858 246.044 C 197.405 246.391,197.383 246.400,195.540 246.560 C 195.224 246.588,195.068 245.323,195.040 242.500 C 194.993 237.655,195.374 237.339,197.930 240.100 M211.570 238.964 C 212.167 239.683,211.350 240.310,210.685 239.645 C 210.021 238.981,208.400 239.093,208.400 239.803 C 208.400 240.134,208.876 240.809,209.457 241.303 C 212.238 243.663,212.590 244.610,211.200 246.000 C 210.242 246.958,208.302 247.045,207.425 246.168 C 206.566 245.309,207.078 244.566,207.971 245.374 C 208.856 246.175,209.760 246.171,210.431 245.362 C 210.889 244.811,210.705 244.487,209.080 242.973 C 207.169 241.193,206.710 239.850,207.680 238.880 C 208.342 238.218,210.999 238.276,211.570 238.964 M232.644 239.029 C 232.511 239.375,232.597 240.020,232.833 240.462 C 233.349 241.426,234.893 240.413,234.703 239.236 C 234.630 238.784,234.976 238.564,235.900 238.475 C 237.461 238.324,237.535 238.622,236.197 239.673 C 234.149 241.284,234.612 244.828,236.989 245.741 C 237.855 246.073,237.748 246.800,236.833 246.800 C 235.669 246.800,234.800 246.373,234.800 245.802 C 234.800 245.519,234.442 244.864,234.005 244.344 L 233.211 243.400 232.413 244.400 C 231.973 244.950,231.693 245.619,231.790 245.887 C 232.040 246.581,231.399 246.865,230.240 246.574 L 229.243 246.324 230.822 244.681 C 232.778 242.646,232.777 242.430,230.800 240.352 C 228.834 238.285,228.820 238.400,231.043 238.400 C 232.554 238.400,232.842 238.513,232.644 239.029 M246.654 239.406 C 247.913 241.127,246.884 243.200,244.771 243.200 C 243.359 243.200,242.945 245.770,244.300 246.124 C 244.685 246.225,244.280 246.328,243.400 246.355 L 241.800 246.402 241.928 242.801 C 242.013 240.428,241.911 239.200,241.628 239.200 C 241.393 239.200,241.200 238.998,241.200 238.752 C 241.200 237.955,246.015 238.532,246.654 239.406 M254.400 238.800 C 254.400 239.020,254.130 239.200,253.800 239.200 C 253.317 239.200,253.200 239.822,253.200 242.400 L 253.200 245.600 254.720 245.600 C 255.556 245.600,256.473 245.375,256.759 245.100 C 257.178 244.696,257.250 244.753,257.134 245.400 C 257.007 246.110,256.634 246.212,253.796 246.305 C 252.038 246.362,250.798 246.272,251.039 246.105 C 251.793 245.582,252.108 239.616,251.396 239.343 C 250.213 238.889,250.837 238.400,252.600 238.400 C 253.590 238.400,254.400 238.580,254.400 238.800 M268.031 239.569 C 269.404 240.943,269.598 243.004,268.524 244.821 C 267.110 247.214,263.298 247.382,261.407 245.135 C 258.014 241.104,264.291 235.829,268.031 239.569 M277.911 239.023 C 278.892 239.710,279.115 241.525,278.316 242.324 C 277.786 242.854,278.721 244.930,279.924 245.896 C 280.708 246.526,280.416 246.834,279.309 246.545 C 278.839 246.421,277.989 245.619,277.421 244.760 C 275.857 242.397,274.288 243.148,275.614 245.626 C 275.984 246.318,275.889 246.400,274.714 246.400 L 273.400 246.400 273.400 242.400 L 273.400 238.400 275.211 238.400 C 276.207 238.400,277.422 238.680,277.911 239.023 M289.123 238.744 C 289.470 238.964,289.616 239.816,289.557 241.272 L 289.468 243.469 287.934 243.188 C 286.404 242.908,286.400 242.911,286.400 244.254 C 286.400 245.526,286.477 245.600,287.800 245.600 C 288.933 245.600,289.200 245.448,289.200 244.800 C 289.200 244.360,289.380 244.000,289.600 244.000 C 289.820 244.000,290.000 244.540,290.000 245.200 L 290.000 246.400 286.500 246.346 C 284.575 246.316,283.405 246.213,283.900 246.118 C 284.870 245.931,285.357 239.200,284.400 239.200 C 284.180 239.200,284.000 239.020,284.000 238.800 C 284.000 238.319,288.378 238.272,289.123 238.744 M299.942 238.970 C 304.327 241.238,301.977 246.400,296.560 246.400 C 294.133 246.400,293.547 246.293,293.920 245.920 C 294.511 245.329,294.584 239.200,294.000 239.200 C 293.780 239.200,293.600 239.020,293.600 238.800 C 293.600 238.183,298.683 238.319,299.942 238.970 M100.000 239.200 C 100.000 239.420,99.719 239.600,99.376 239.600 C 99.007 239.600,98.869 239.788,99.038 240.062 C 99.215 240.348,99.148 240.415,98.862 240.238 C 98.108 239.772,98.336 238.800,99.200 238.800 C 99.640 238.800,100.000 238.980,100.000 239.200 M131.437 239.959 C 131.029 240.410,130.742 241.399,130.728 242.400 C 130.670 246.610,135.714 247.116,136.269 242.955 C 136.672 239.933,133.334 237.863,131.437 239.959 M184.207 239.992 C 182.398 241.991,183.825 245.733,186.397 245.733 C 188.153 245.733,189.000 244.722,189.000 242.628 C 189.000 239.579,186.049 237.957,184.207 239.992 M243.600 240.828 C 243.600 242.287,243.693 242.442,244.500 242.328 C 246.202 242.086,245.835 239.227,244.100 239.206 C 243.781 239.202,243.600 239.789,243.600 240.828 M262.623 240.089 C 260.714 242.814,263.196 246.742,266.123 245.629 C 267.949 244.935,268.242 240.951,266.558 239.720 C 265.405 238.876,263.336 239.071,262.623 240.089 M275.262 240.800 C 275.371 242.639,276.569 243.080,277.166 241.500 C 277.602 240.344,277.007 239.200,275.970 239.200 C 275.285 239.200,275.181 239.434,275.262 240.800 M286.900 239.492 C 286.625 239.588,286.400 240.192,286.400 240.833 C 286.400 242.037,286.697 242.177,288.321 241.742 C 288.959 241.571,289.205 241.249,289.121 240.691 C 288.995 239.854,287.765 239.189,286.900 239.492 M296.000 242.575 L 296.000 245.950 297.500 245.732 C 301.546 245.145,301.455 239.200,297.400 239.200 L 296.000 239.200 296.000 242.575 M156.000 240.767 C 156.000 240.969,155.891 241.419,155.757 241.767 C 155.588 242.209,155.739 242.390,156.257 242.368 C 156.666 242.351,156.794 242.252,156.542 242.149 C 156.291 242.046,156.177 241.610,156.289 241.181 C 156.401 240.751,156.382 240.400,156.247 240.400 C 156.111 240.400,156.000 240.565,156.000 240.767 M100.066 243.852 C 100.157 245.656,100.046 246.562,99.719 246.687 C 98.765 247.052,98.400 246.311,98.400 244.010 C 98.400 241.846,98.624 241.355,99.666 241.232 C 99.812 241.214,99.992 242.393,100.066 243.852 M225.323 242.046 C 226.017 243.154,225.363 244.000,223.813 244.000 C 222.351 244.000,222.164 244.207,222.766 245.158 C 223.007 245.539,223.513 245.637,224.360 245.468 C 226.413 245.057,225.997 246.051,223.906 246.551 C 221.611 247.099,220.292 243.925,222.037 242.052 C 222.993 241.027,224.684 241.023,225.323 242.046 M222.800 242.315 C 222.800 242.488,223.164 242.657,223.609 242.691 C 224.053 242.724,224.313 242.582,224.185 242.376 C 223.904 241.921,222.800 241.873,222.800 242.315 " stroke="none" fill="#044bab" fill-rule="evenodd"></path><path id="path1" d="M231.114 147.682 C 227.727 150.236,219.686 184.778,221.183 190.338 C 221.856 192.836,222.961 193.196,234.800 194.776 C 247.218 196.434,248.723 196.562,249.384 196.014 C 249.912 195.575,250.298 193.200,249.841 193.200 C 249.753 193.200,247.188 192.574,244.141 191.809 C 239.217 190.573,233.181 189.415,227.500 188.618 C 226.455 188.471,225.600 188.162,225.600 187.931 C 225.600 186.713,229.062 172.624,231.195 165.164 C 234.213 154.605,235.256 149.079,234.389 148.230 C 233.503 147.362,231.895 147.093,231.114 147.682 M191.800 147.879 C 168.909 150.915,167.019 186.302,189.433 192.198 C 202.685 195.684,218.686 185.826,218.895 174.046 C 218.975 169.537,217.389 169.322,215.613 173.600 C 211.436 183.664,201.560 188.966,191.120 186.750 C 175.681 183.475,175.570 158.576,190.970 153.528 C 200.038 150.555,208.983 152.846,213.762 159.365 C 217.032 163.825,219.182 162.389,217.193 157.074 C 214.519 149.926,204.290 146.222,191.800 147.879 M143.696 208.439 C 141.145 212.913,137.600 223.801,137.600 227.162 C 137.600 227.697,139.137 225.107,140.647 222.029 L 142.301 218.659 143.321 220.229 C 145.217 223.147,148.163 225.829,151.187 227.393 L 152.268 227.952 151.737 225.146 C 150.578 219.018,149.014 214.383,146.263 208.926 L 144.928 206.278 143.696 208.439 M272.307 206.636 C 269.240 211.710,266.492 219.349,265.413 225.800 L 265.146 227.400 266.357 225.511 C 267.023 224.473,267.965 222.673,268.449 221.511 C 269.638 218.664,269.811 218.534,270.651 219.857 C 272.794 223.233,278.659 228.274,279.484 227.450 C 279.905 227.028,278.544 220.762,277.127 216.600 C 275.724 212.478,272.635 206.093,272.307 206.636 M89.200 207.632 C 85.225 209.432,83.420 212.167,83.420 216.393 C 83.420 223.340,87.580 227.567,93.967 227.110 C 97.877 226.830,99.695 225.800,96.279 225.800 C 87.917 225.800,82.443 215.334,87.684 209.366 C 89.748 207.015,93.700 207.814,97.170 211.285 L 99.200 213.314 99.200 211.327 C 99.200 207.321,94.073 205.427,89.200 207.632 M105.508 207.086 C 103.512 207.389,102.663 217.095,103.993 224.400 L 104.539 227.400 105.031 225.800 C 105.302 224.920,105.654 222.985,105.813 221.500 C 106.148 218.389,106.260 218.306,107.564 220.221 C 109.444 222.981,115.980 228.153,116.690 227.443 C 117.338 226.796,111.698 220.412,109.147 218.905 C 107.520 217.944,107.718 217.600,109.900 217.599 C 113.380 217.596,115.525 215.319,115.693 211.450 C 115.857 207.703,112.084 206.087,105.508 207.086 M122.728 207.058 C 120.248 207.497,119.531 224.274,121.891 226.634 C 122.977 227.720,135.285 227.108,134.601 226.002 C 133.953 224.954,125.169 224.497,123.054 225.402 C 122.253 225.744,122.253 225.849,123.070 219.673 L 123.299 217.947 125.813 218.216 C 128.385 218.492,134.000 217.761,134.000 217.151 C 134.000 216.250,126.265 215.481,124.103 216.167 C 123.398 216.391,123.291 216.091,122.877 212.728 C 122.340 208.368,122.156 208.698,124.835 209.207 C 127.060 209.630,128.881 209.515,132.921 208.696 L 135.242 208.226 133.721 207.679 C 132.188 207.127,124.718 206.705,122.728 207.058 M155.205 207.285 C 152.464 208.046,156.905 209.612,160.261 209.068 C 161.566 208.856,161.660 208.907,161.462 209.719 C 160.598 213.256,160.906 223.654,161.959 226.502 C 162.860 228.936,163.850 216.468,163.200 210.881 L 163.000 209.161 165.800 209.060 C 169.111 208.940,171.007 208.178,169.764 207.466 C 168.788 206.908,157.086 206.762,155.205 207.285 M180.178 207.600 C 181.631 215.256,186.432 228.122,187.573 227.416 C 189.335 226.328,195.655 207.922,194.622 206.889 C 194.019 206.286,188.626 218.698,188.111 221.872 C 187.776 223.937,187.449 223.509,185.994 219.100 C 184.115 213.404,179.576 204.430,180.178 207.600 M200.328 207.058 C 197.848 207.497,197.131 224.274,199.491 226.634 C 200.577 227.720,212.885 227.108,212.201 226.002 C 211.563 224.969,202.857 224.530,200.654 225.420 C 199.855 225.742,199.855 225.878,200.653 219.788 L 200.864 218.176 205.132 218.148 C 207.599 218.132,209.906 217.907,210.600 217.616 L 211.800 217.112 210.200 216.531 C 208.554 215.933,203.176 215.700,201.716 216.163 C 200.970 216.400,200.871 216.212,200.636 214.112 C 200.493 212.840,200.274 211.114,200.149 210.274 L 199.921 208.749 201.461 209.074 C 203.596 209.526,208.644 209.302,210.772 208.662 L 212.544 208.128 211.172 207.630 C 209.760 207.116,202.236 206.720,200.328 207.058 M225.219 208.800 C 224.084 213.609,224.351 225.311,225.625 226.585 C 226.285 227.245,233.588 227.314,235.600 226.680 L 237.400 226.112 236.200 225.582 C 235.461 225.256,233.342 225.042,230.684 225.026 L 226.368 225.000 226.684 222.800 C 227.128 219.710,226.888 211.859,226.263 209.000 L 225.738 206.600 225.219 208.800 M249.800 207.409 C 248.700 207.715,247.620 207.984,247.400 208.008 C 246.438 208.111,249.202 208.864,251.945 209.245 C 254.127 209.549,255.854 209.533,258.293 209.187 C 262.287 208.620,262.631 208.791,260.369 210.220 C 256.128 212.897,245.998 224.992,247.106 226.054 C 248.601 227.486,263.476 227.417,262.589 225.983 C 261.939 224.931,252.411 224.542,248.800 225.421 C 247.670 225.695,247.524 225.849,252.477 221.563 C 255.741 218.739,263.659 208.726,263.083 208.150 C 261.942 207.009,253.031 206.512,249.800 207.409 M285.534 207.083 C 284.231 207.283,284.133 207.524,283.579 211.905 C 283.124 215.505,283.315 220.249,284.098 224.800 L 284.545 227.400 285.034 225.800 C 285.303 224.920,285.654 222.985,285.813 221.500 C 286.155 218.322,286.209 218.299,287.905 220.605 C 290.017 223.477,296.009 228.124,296.704 227.430 C 297.446 226.687,289.754 218.400,288.322 218.400 C 288.145 218.400,288.000 218.220,288.000 218.000 C 288.000 217.780,288.765 217.600,289.700 217.599 C 293.233 217.598,295.584 215.203,295.728 211.459 C 295.873 207.722,292.057 206.084,285.534 207.083 M303.100 207.087 C 300.817 207.432,299.699 215.238,300.820 222.998 C 301.344 226.622,301.605 226.842,305.656 227.078 C 312.345 227.469,316.520 223.448,316.535 216.600 C 316.550 209.266,311.645 205.792,303.100 207.087 M174.421 209.844 C 173.750 213.223,173.807 221.434,174.525 224.800 L 175.080 227.400 175.740 224.521 C 176.767 220.041,176.361 207.200,175.192 207.200 C 175.057 207.200,174.710 208.390,174.421 209.844 M241.202 210.300 C 240.325 215.649,240.843 226.800,241.967 226.800 C 243.005 226.800,243.515 216.048,242.740 210.500 C 242.166 206.395,241.848 206.354,241.202 210.300 M109.600 208.828 C 114.716 210.152,116.127 213.653,112.069 214.957 C 106.485 216.752,106.183 216.593,105.799 211.658 L 105.508 207.916 106.854 208.191 C 107.594 208.342,108.830 208.629,109.600 208.828 M290.786 209.347 C 296.355 211.520,295.603 214.535,289.211 215.661 C 286.133 216.203,286.143 216.214,285.796 211.674 L 285.511 207.947 287.055 208.221 C 287.905 208.371,289.584 208.878,290.786 209.347 M308.561 208.820 C 317.523 212.173,314.861 225.216,305.071 225.916 L 302.293 226.115 302.647 223.758 C 303.095 220.766,303.102 213.755,302.661 210.500 L 302.321 208.000 304.346 208.000 C 305.459 208.000,307.356 208.369,308.561 208.820 M276.959 222.194 C 278.256 225.002,278.418 226.476,277.174 224.152 C 276.452 222.803,273.426 220.136,271.500 219.151 C 270.675 218.729,270.000 218.239,270.000 218.062 C 270.000 217.771,271.666 212.669,272.241 211.200 C 272.377 210.853,273.127 212.407,274.023 214.894 C 274.874 217.256,276.195 220.541,276.959 222.194 M146.419 214.900 C 147.143 216.935,148.427 220.113,149.271 221.963 C 151.058 225.878,151.046 226.263,149.210 223.814 C 147.734 221.844,145.690 220.080,143.675 219.039 C 142.946 218.662,142.407 218.139,142.477 217.877 C 143.207 215.123,144.578 211.200,144.809 211.200 C 144.970 211.200,145.695 212.865,146.419 214.900 M104.620 239.179 C 104.834 239.392,104.912 241.057,104.800 242.980 C 104.633 245.843,104.698 246.401,105.200 246.401 C 105.694 246.402,105.780 245.819,105.687 243.101 L 105.575 239.800 108.751 243.200 L 111.927 246.600 112.063 242.699 C 112.181 239.332,112.112 238.798,111.560 238.799 C 111.015 238.800,110.967 239.102,111.239 240.821 C 111.843 244.642,111.281 244.813,108.583 241.629 C 106.841 239.572,105.936 238.813,105.220 238.808 C 104.602 238.803,104.380 238.940,104.620 239.179 M117.400 242.600 C 117.400 245.711,117.509 246.400,118.000 246.401 C 118.496 246.402,118.577 245.829,118.467 243.107 L 118.333 239.811 120.067 241.801 C 124.015 246.334,124.375 246.664,124.418 245.800 C 124.439 245.360,124.584 243.605,124.739 241.900 C 124.979 239.264,124.930 238.800,124.411 238.799 C 123.909 238.798,123.824 239.296,123.933 241.599 C 124.095 245.027,123.976 245.026,121.082 241.569 C 117.837 237.693,117.400 237.815,117.400 242.600 M130.598 239.766 C 128.248 242.115,130.141 247.391,132.927 246.256 C 133.188 246.149,133.100 246.049,132.729 246.032 C 130.489 245.926,129.536 241.138,131.454 239.629 C 132.034 239.173,132.295 238.800,132.036 238.800 C 131.776 238.800,131.129 239.234,130.598 239.766 M135.478 239.765 C 136.882 240.973,137.071 243.796,135.838 245.158 C 135.419 245.621,135.272 246.000,135.511 246.000 C 137.839 246.000,138.076 239.929,135.782 239.048 C 134.492 238.553,134.378 238.820,135.478 239.765 M142.000 238.929 C 142.000 239.449,145.152 246.184,145.441 246.280 C 145.854 246.418,147.808 241.274,147.470 240.937 C 147.351 240.817,147.061 241.412,146.826 242.260 C 146.179 244.601,145.776 245.077,145.260 244.112 C 144.041 241.835,143.251 239.248,143.717 239.059 C 143.983 238.951,143.705 238.849,143.100 238.832 C 142.495 238.814,142.000 238.858,142.000 238.929 M154.840 241.898 C 154.311 243.604,153.609 245.315,153.278 245.700 C 152.731 246.336,152.755 246.400,153.538 246.400 C 154.183 246.400,154.400 246.157,154.400 245.433 C 154.400 243.710,154.812 243.200,156.204 243.200 C 157.518 243.200,158.792 245.042,158.172 246.046 C 158.051 246.241,158.435 246.400,159.025 246.400 C 159.942 246.400,160.024 246.311,159.591 245.789 C 159.312 245.453,158.601 243.788,158.011 242.089 C 156.598 238.025,156.049 237.992,154.840 241.898 M163.862 239.100 C 163.760 239.265,164.482 239.336,165.468 239.257 L 167.259 239.115 167.129 242.758 C 167.022 245.788,167.101 246.402,167.600 246.402 C 168.099 246.402,168.178 245.788,168.070 242.756 L 167.941 239.110 169.570 239.266 C 170.467 239.351,171.200 239.281,171.200 239.111 C 171.200 238.712,164.108 238.701,163.862 239.100 M175.800 242.600 C 175.800 245.711,175.909 246.400,176.400 246.400 C 176.891 246.400,177.000 245.712,177.000 242.602 C 177.000 239.492,176.891 238.803,176.400 238.802 C 175.909 238.800,175.800 239.488,175.800 242.600 M183.220 239.865 C 181.131 242.522,183.058 247.362,185.761 246.245 C 186.002 246.145,185.898 246.049,185.529 246.032 C 183.289 245.926,182.336 241.138,184.254 239.629 C 184.977 239.061,185.112 238.800,184.683 238.800 C 184.339 238.800,183.681 239.279,183.220 239.865 M188.131 239.617 C 189.491 240.687,189.842 242.631,189.036 244.635 L 188.407 246.200 189.401 245.000 C 191.279 242.734,190.081 238.800,187.513 238.800 C 187.282 238.800,187.560 239.168,188.131 239.617 M195.206 240.431 C 195.478 241.918,195.410 243.886,195.024 245.700 C 194.929 246.145,195.117 246.400,195.537 246.401 C 196.109 246.402,196.185 245.951,196.092 243.101 L 195.984 239.800 198.778 242.800 C 200.315 244.450,201.579 245.935,201.586 246.100 C 201.594 246.265,201.768 246.400,201.973 246.400 C 202.177 246.400,202.402 244.690,202.473 242.599 C 202.583 239.315,202.512 238.798,201.955 238.799 C 201.401 238.800,201.359 239.076,201.663 240.744 C 202.363 244.596,201.686 244.819,198.983 241.629 C 196.098 238.223,194.722 237.787,195.206 240.431 M207.680 239.280 C 206.866 240.094,207.127 240.684,209.206 242.730 C 210.681 244.182,211.139 244.893,210.938 245.418 C 210.750 245.907,210.811 246.040,211.132 245.842 C 212.136 245.222,211.589 243.713,209.757 242.046 C 208.426 240.834,207.972 240.152,208.120 239.585 C 208.360 238.667,208.320 238.640,207.680 239.280 M230.044 239.200 C 232.883 240.860,233.074 242.729,230.668 245.300 C 229.726 246.306,229.705 246.400,230.419 246.400 C 230.849 246.400,231.201 246.175,231.202 245.900 C 231.203 245.625,231.653 244.860,232.202 244.200 L 233.200 243.000 234.198 244.200 C 234.747 244.860,235.197 245.625,235.198 245.900 C 235.199 246.175,235.683 246.400,236.275 246.400 L 237.350 246.400 236.327 245.300 C 233.684 242.459,233.596 241.405,235.851 239.631 C 236.432 239.174,236.698 238.800,236.442 238.800 C 236.185 238.800,235.412 239.442,234.724 240.226 L 233.471 241.652 232.574 240.526 C 232.080 239.907,231.760 239.265,231.862 239.100 C 231.964 238.935,231.452 238.805,230.724 238.812 C 229.704 238.822,229.548 238.911,230.044 239.200 M242.200 242.601 C 242.200 245.741,242.306 246.401,242.811 246.400 C 243.278 246.400,243.387 246.038,243.274 244.857 C 243.129 243.334,243.148 243.311,244.720 243.059 C 246.341 242.800,246.800 242.268,246.800 240.647 C 246.800 239.609,246.099 238.795,245.220 238.812 C 244.710 238.822,244.724 238.896,245.300 239.232 C 246.804 240.108,245.807 243.056,244.119 242.725 C 243.548 242.612,243.400 242.193,243.400 240.691 C 243.400 239.275,243.249 238.799,242.800 238.800 C 242.309 238.801,242.200 239.491,242.200 242.601 M251.800 242.600 L 251.800 246.400 254.000 246.330 C 256.046 246.265,256.079 246.249,254.472 246.106 L 252.744 245.951 252.872 242.375 C 252.978 239.405,252.898 238.798,252.400 238.799 C 251.909 238.800,251.800 239.489,251.800 242.600 M261.836 240.031 C 260.042 242.162,261.255 246.400,263.658 246.400 C 263.944 246.400,263.792 246.129,263.320 245.799 C 261.436 244.479,261.195 240.610,262.921 239.400 C 263.392 239.070,263.574 238.800,263.325 238.800 C 263.075 238.800,262.405 239.354,261.836 240.031 M266.105 239.057 C 267.801 239.547,268.569 243.366,267.343 245.211 L 266.686 246.200 267.705 245.200 C 269.806 243.137,268.961 239.119,266.386 238.926 C 265.795 238.882,265.683 238.934,266.105 239.057 M273.800 242.600 C 273.800 246.262,273.832 246.400,274.690 246.400 C 275.445 246.400,275.530 246.263,275.248 245.500 C 275.066 245.005,274.935 243.295,274.958 241.700 C 274.992 239.370,274.882 238.800,274.400 238.800 C 273.909 238.800,273.800 239.489,273.800 242.600 M276.900 239.205 C 277.877 239.812,277.819 241.855,276.809 242.395 C 276.058 242.797,276.053 242.856,276.709 243.567 C 277.089 243.979,277.791 244.785,278.270 245.358 C 278.748 245.931,279.364 246.400,279.639 246.400 C 279.945 246.400,279.820 246.049,279.320 245.500 C 277.737 243.762,277.456 242.822,278.255 241.939 C 279.127 240.976,278.343 239.091,276.986 238.888 C 276.264 238.780,276.257 238.806,276.900 239.205 M284.787 239.576 C 285.021 240.013,285.124 241.677,285.024 243.376 L 284.844 246.400 286.522 246.340 C 287.718 246.297,287.884 246.232,287.100 246.113 C 285.934 245.937,285.929 245.918,285.909 241.000 C 285.906 240.340,285.700 239.656,285.452 239.480 C 285.203 239.304,285.945 239.214,287.100 239.280 C 288.255 239.346,289.200 239.265,289.200 239.100 C 289.200 238.935,288.114 238.800,286.786 238.800 C 284.520 238.800,284.397 238.848,284.787 239.576 M299.493 239.586 C 301.147 241.127,301.148 244.231,299.495 245.389 C 298.807 245.871,298.762 246.000,299.282 246.000 C 300.373 246.000,301.600 244.056,301.600 242.328 C 301.600 240.739,300.249 238.800,299.143 238.800 C 298.870 238.800,299.027 239.152,299.493 239.586 M156.800 241.624 C 156.800 242.533,156.619 242.800,156.000 242.800 C 155.096 242.800,155.029 242.501,155.599 241.002 C 156.097 239.692,156.800 240.056,156.800 241.624 M222.400 242.000 C 221.504 242.896,221.319 245.159,222.080 245.920 C 222.660 246.500,224.258 246.554,224.597 246.005 C 224.738 245.777,224.576 245.711,224.216 245.849 C 222.614 246.464,221.717 243.418,223.062 241.931 C 223.959 240.940,223.402 240.998,222.400 242.000 M224.531 242.566 C 224.782 243.097,225.125 243.446,225.295 243.342 C 225.668 243.111,224.913 241.600,224.424 241.600 C 224.232 241.600,224.280 242.035,224.531 242.566 M294.795 243.076 C 294.792 243.914,294.681 245.005,294.548 245.500 C 294.352 246.231,294.470 246.400,295.177 246.400 C 295.656 246.400,295.940 246.227,295.809 246.015 C 295.678 245.803,295.555 244.810,295.535 243.807 C 295.491 241.600,294.802 240.920,294.795 243.076 " stroke="none" fill="#eef3f6" fill-rule="evenodd"></path><path id="path2" d="M224.093 217.200 C 224.093 217.970,224.175 218.285,224.276 217.900 C 224.376 217.515,224.376 216.885,224.276 216.500 C 224.175 216.115,224.093 216.430,224.093 217.200 M165.500 238.682 C 165.995 238.778,166.805 238.778,167.300 238.682 C 167.795 238.587,167.390 238.509,166.400 238.509 C 165.410 238.509,165.005 238.587,165.500 238.682 M295.200 238.655 C 295.667 238.782,295.793 239.459,295.768 241.709 L 295.735 244.600 295.884 241.953 C 296.029 239.374,296.066 239.296,297.316 238.894 C 298.558 238.495,298.534 238.482,296.600 238.487 C 295.500 238.490,294.870 238.566,295.200 238.655 M273.731 241.800 C 273.733 243.340,273.805 243.921,273.892 243.091 C 273.979 242.261,273.977 241.001,273.889 240.291 C 273.800 239.581,273.729 240.260,273.731 241.800 M286.093 240.400 C 286.093 241.170,286.175 241.485,286.276 241.100 C 286.376 240.715,286.376 240.085,286.276 239.700 C 286.175 239.315,286.093 239.630,286.093 240.400 M166.931 242.200 C 166.933 243.740,167.005 244.321,167.092 243.491 C 167.179 242.661,167.177 241.401,167.089 240.691 C 167.000 239.981,166.929 240.660,166.931 242.200 M286.100 245.200 C 286.206 245.592,286.807 245.818,287.831 245.851 C 289.334 245.900,289.341 245.894,288.003 245.718 C 287.235 245.617,286.457 245.325,286.273 245.067 C 286.045 244.749,285.990 244.791,286.100 245.200 M208.457 246.356 C 208.074 246.599,208.218 246.700,208.950 246.700 C 209.519 246.700,209.888 246.543,209.769 246.350 C 209.499 245.914,209.153 245.915,208.457 246.356 " stroke="none" fill="#5a8dc7" fill-rule="evenodd"></path><path id="path3" d="M197.300 147.487 C 197.905 147.578,198.895 147.578,199.500 147.487 C 200.105 147.395,199.610 147.320,198.400 147.320 C 197.190 147.320,196.695 147.395,197.300 147.487 M193.300 193.076 C 193.685 193.176,194.315 193.176,194.700 193.076 C 195.085 192.975,194.770 192.893,194.000 192.893 C 193.230 192.893,192.915 192.975,193.300 193.076 M240.493 214.800 C 240.493 215.570,240.575 215.885,240.676 215.500 C 240.776 215.115,240.776 214.485,240.676 214.100 C 240.575 213.715,240.493 214.030,240.493 214.800 M176.514 217.000 C 176.517 218.100,176.595 218.503,176.687 217.895 C 176.779 217.286,176.777 216.386,176.682 215.895 C 176.587 215.403,176.511 215.900,176.514 217.000 M243.320 217.200 C 243.320 218.410,243.395 218.905,243.487 218.300 C 243.578 217.695,243.578 216.705,243.487 216.100 C 243.395 215.495,243.320 215.990,243.320 217.200 M128.500 215.876 C 128.885 215.976,129.515 215.976,129.900 215.876 C 130.285 215.775,129.970 215.693,129.200 215.693 C 128.430 215.693,128.115 215.775,128.500 215.876 M88.000 221.725 C 88.000 221.794,88.585 222.379,89.300 223.025 L 90.600 224.200 89.425 222.900 C 88.330 221.688,88.000 221.416,88.000 221.725 M229.700 224.676 C 230.085 224.776,230.715 224.776,231.100 224.676 C 231.485 224.575,231.170 224.493,230.400 224.493 C 229.630 224.493,229.315 224.575,229.700 224.676 M92.305 227.483 C 92.802 227.579,93.522 227.575,93.905 227.475 C 94.287 227.375,93.880 227.296,93.000 227.301 C 92.120 227.305,91.807 227.387,92.305 227.483 M126.100 227.487 C 126.705 227.578,127.695 227.578,128.300 227.487 C 128.905 227.395,128.410 227.320,127.200 227.320 C 125.990 227.320,125.495 227.395,126.100 227.487 M203.507 227.490 C 204.226 227.579,205.306 227.577,205.907 227.486 C 206.508 227.395,205.920 227.322,204.600 227.324 C 203.280 227.326,202.788 227.401,203.507 227.490 M229.900 227.482 C 230.395 227.578,231.205 227.578,231.700 227.482 C 232.195 227.387,231.790 227.309,230.800 227.309 C 229.810 227.309,229.405 227.387,229.900 227.482 M254.300 227.482 C 254.795 227.578,255.605 227.578,256.100 227.482 C 256.595 227.387,256.190 227.309,255.200 227.309 C 254.210 227.309,253.805 227.387,254.300 227.482 M306.100 227.476 C 306.485 227.576,307.115 227.576,307.500 227.476 C 307.885 227.375,307.570 227.293,306.800 227.293 C 306.030 227.293,305.715 227.375,306.100 227.476 M132.400 238.800 C 132.400 239.020,132.850 239.200,133.400 239.200 C 133.950 239.200,134.400 239.020,134.400 238.800 C 134.400 238.580,133.950 238.400,133.400 238.400 C 132.850 238.400,132.400 238.580,132.400 238.800 M185.200 238.800 C 185.200 239.020,185.639 239.200,186.176 239.200 C 186.713 239.200,187.264 239.020,187.400 238.800 C 187.544 238.567,187.137 238.400,186.424 238.400 C 185.751 238.400,185.200 238.580,185.200 238.800 M208.400 238.824 C 208.400 239.057,208.232 239.144,208.028 239.017 C 207.823 238.891,207.555 238.950,207.432 239.149 C 207.147 239.610,210.068 239.252,210.580 238.763 C 210.811 238.542,210.458 238.400,209.680 238.400 C 208.976 238.400,208.400 238.591,208.400 238.824 M263.600 238.800 C 263.600 239.020,264.039 239.200,264.576 239.200 C 265.113 239.200,265.664 239.020,265.800 238.800 C 265.944 238.567,265.537 238.400,264.824 238.400 C 264.151 238.400,263.600 238.580,263.600 238.800 M274.619 238.671 C 274.849 238.749,274.996 239.485,274.944 240.306 L 274.850 241.800 275.125 240.400 C 275.276 239.630,275.610 239.000,275.867 239.000 C 276.123 239.000,276.457 238.877,276.608 238.726 C 276.759 238.575,276.279 238.469,275.541 238.491 C 274.803 238.512,274.389 238.594,274.619 238.671 M294.157 239.033 C 294.291 239.381,294.432 240.956,294.472 242.533 C 294.528 244.769,294.577 244.980,294.694 243.490 C 294.777 242.440,294.996 241.674,295.181 241.788 C 295.365 241.902,295.582 241.305,295.663 240.460 C 295.792 239.110,295.717 238.949,295.042 239.125 C 294.530 239.259,294.370 239.172,294.561 238.863 C 294.718 238.608,294.637 238.400,294.381 238.400 C 294.120 238.400,294.021 238.679,294.157 239.033 M235.013 239.420 C 234.345 240.980,234.473 241.271,235.429 240.373 C 236.410 239.451,236.707 238.963,236.034 239.379 C 235.833 239.503,235.596 239.388,235.508 239.123 C 235.412 238.835,235.212 238.956,235.013 239.420 M176.937 242.200 C 176.939 243.960,177.009 244.630,177.093 243.689 C 177.178 242.749,177.177 241.309,177.091 240.489 C 177.005 239.670,176.936 240.440,176.937 242.200 M252.940 242.800 C 252.940 244.670,253.009 245.435,253.093 244.500 C 253.177 243.565,253.177 242.035,253.093 241.100 C 253.009 240.165,252.940 240.930,252.940 242.800 M242.134 242.800 C 242.134 244.450,242.205 245.125,242.291 244.300 C 242.378 243.475,242.378 242.125,242.291 241.300 C 242.205 240.475,242.134 241.150,242.134 242.800 M284.853 242.253 C 284.824 243.507,284.888 244.445,284.994 244.339 C 285.267 244.066,285.375 240.442,285.118 240.185 C 285.001 240.068,284.882 240.999,284.853 242.253 M98.965 241.900 C 99.120 242.175,99.073 242.400,98.860 242.400 C 98.647 242.400,98.485 243.210,98.499 244.200 C 98.522 245.710,98.653 246.000,99.309 246.000 C 100.174 246.000,100.014 242.651,99.108 241.800 C 98.817 241.526,98.772 241.558,98.965 241.900 M285.750 242.080 C 285.517 242.458,286.090 242.690,287.872 242.942 C 288.803 243.073,289.091 242.982,288.945 242.601 C 288.720 242.014,286.060 241.580,285.750 242.080 M124.493 245.200 C 124.493 245.970,124.575 246.285,124.676 245.900 C 124.776 245.515,124.776 244.885,124.676 244.500 C 124.575 244.115,124.493 244.430,124.493 245.200 M266.764 245.444 C 266.531 245.724,265.769 246.025,265.070 246.113 C 263.856 246.265,263.866 246.275,265.300 246.336 C 266.129 246.371,266.800 246.211,266.800 245.976 C 266.800 245.743,266.960 245.651,267.155 245.772 C 267.350 245.893,267.707 245.753,267.948 245.462 C 268.279 245.064,268.239 244.933,267.787 244.933 C 267.457 244.933,266.997 245.163,266.764 245.444 M289.293 245.600 C 288.876 246.267,288.893 246.400,289.397 246.400 C 289.733 246.400,290.000 246.046,290.000 245.600 C 290.000 245.160,289.953 244.800,289.896 244.800 C 289.839 244.800,289.568 245.160,289.293 245.600 M295.726 245.400 C 295.812 246.249,298.800 246.880,298.800 246.049 C 298.800 245.819,298.225 245.744,297.438 245.871 C 296.340 246.049,296.035 245.948,295.861 245.346 C 295.671 244.686,295.655 244.692,295.726 245.400 M187.200 245.825 L 185.800 246.355 187.057 246.377 C 187.822 246.391,188.405 246.165,188.545 245.800 C 188.671 245.470,188.736 245.221,188.687 245.248 C 188.639 245.274,187.970 245.534,187.200 245.825 M134.100 245.882 C 132.749 246.143,133.016 246.688,134.396 246.486 C 135.054 246.389,135.493 246.151,135.372 245.955 C 135.252 245.760,135.118 245.625,135.076 245.654 C 135.034 245.684,134.595 245.787,134.100 245.882 " stroke="none" fill="#72afdc" fill-rule="evenodd"></path><path id="path4" d="M197.900 152.682 C 198.395 152.778,199.205 152.778,199.700 152.682 C 200.195 152.587,199.790 152.509,198.800 152.509 C 197.810 152.509,197.405 152.587,197.900 152.682 M197.714 215.400 C 197.717 216.500,197.795 216.903,197.887 216.295 C 197.979 215.686,197.977 214.786,197.882 214.295 C 197.787 213.803,197.711 214.300,197.714 215.400 M120.134 217.200 C 120.134 218.850,120.205 219.525,120.291 218.700 C 120.378 217.875,120.378 216.525,120.291 215.700 C 120.205 214.875,120.134 215.550,120.134 217.200 M160.514 217.000 C 160.517 218.100,160.595 218.503,160.687 217.895 C 160.779 217.286,160.777 216.386,160.682 215.895 C 160.587 215.403,160.511 215.900,160.514 217.000 M300.109 217.200 C 300.109 218.190,300.187 218.595,300.282 218.100 C 300.378 217.605,300.378 216.795,300.282 216.300 C 300.187 215.805,300.109 216.210,300.109 217.200 M224.093 219.600 C 224.093 220.370,224.175 220.685,224.276 220.300 C 224.376 219.915,224.376 219.285,224.276 218.900 C 224.175 218.515,224.093 218.830,224.093 219.600 M254.181 220.100 L 252.600 221.800 254.300 220.219 C 255.881 218.748,256.184 218.400,255.881 218.400 C 255.816 218.400,255.051 219.165,254.181 220.100 M288.400 221.725 C 288.400 221.794,288.985 222.379,289.700 223.025 L 291.000 224.200 289.825 222.900 C 288.730 221.688,288.400 221.416,288.400 221.725 M164.900 239.476 C 165.285 239.576,165.915 239.576,166.300 239.476 C 166.685 239.375,166.370 239.293,165.600 239.293 C 164.830 239.293,164.515 239.375,164.900 239.476 M168.161 239.758 C 168.043 240.065,168.018 241.010,168.106 241.858 C 168.260 243.345,168.268 243.333,168.333 241.528 C 168.390 239.930,168.532 239.630,169.300 239.482 L 170.200 239.309 169.287 239.254 C 168.786 239.225,168.279 239.451,168.161 239.758 M289.129 241.400 C 288.871 242.599,288.996 243.138,289.430 242.703 C 289.557 242.577,289.599 241.962,289.524 241.337 L 289.387 240.200 289.129 241.400 M251.709 243.200 C 251.709 244.190,251.787 244.595,251.882 244.100 C 251.978 243.605,251.978 242.795,251.882 242.300 C 251.787 241.805,251.709 242.210,251.709 243.200 M105.714 243.800 C 105.717 244.900,105.795 245.303,105.887 244.695 C 105.979 244.086,105.977 243.186,105.882 242.695 C 105.787 242.203,105.711 242.700,105.714 243.800 M175.714 243.800 C 175.717 244.900,175.795 245.303,175.887 244.695 C 175.979 244.086,175.977 243.186,175.882 242.695 C 175.787 242.203,175.711 242.700,175.714 243.800 M117.301 243.800 C 117.305 244.680,117.387 244.993,117.483 244.495 C 117.579 243.998,117.575 243.278,117.475 242.895 C 117.375 242.513,117.296 242.920,117.301 243.800 " stroke="none" fill="#4970b6" fill-rule="evenodd"></path></g></svg>